<?xml version="1.0" encoding="UTF-8" standalone="no"?>
<svg
   xmlns:dc="http://purl.org/dc/elements/1.1/"
   xmlns:cc="http://creativecommons.org/ns#"
   xmlns:rdf="http://www.w3.org/1999/02/22-rdf-syntax-ns#"
   xmlns:svg="http://www.w3.org/2000/svg"
   xmlns="http://www.w3.org/2000/svg"
   xmlns:sodipodi="http://sodipodi.sourceforge.net/DTD/sodipodi-0.dtd"
   xmlns:inkscape="http://www.inkscape.org/namespaces/inkscape"
   version="1.1"
   id="Capa_1"
   x="0px"
   y="0px"
   width="36.174px"
   height="36.174px"
   viewBox="0 0 36.174 36.174"
   style="enable-background:new 0 0 36.174 36.174;"
   xml:space="preserve"
   sodipodi:docname="camera.svg"
   inkscape:version="1.0 (4035a4fb49, 2020-05-01)"><metadata
   id="metadata41"><rdf:RDF><cc:Work
       rdf:about=""><dc:format>image/svg+xml</dc:format><dc:type
         rdf:resource="http://purl.org/dc/dcmitype/StillImage" /></cc:Work></rdf:RDF></metadata><defs
   id="defs39" /><sodipodi:namedview
   inkscape:document-rotation="0"
   pagecolor="#ffffff"
   bordercolor="#666666"
   borderopacity="1"
   objecttolerance="10"
   gridtolerance="10"
   guidetolerance="10"
   inkscape:pageopacity="0"
   inkscape:pageshadow="2"
   inkscape:window-width="1920"
   inkscape:window-height="1017"
   id="namedview37"
   showgrid="false"
   inkscape:zoom="22.271563"
   inkscape:cx="18.087"
   inkscape:cy="18.087"
   inkscape:window-x="-8"
   inkscape:window-y="-8"
   inkscape:window-maximized="1"
   inkscape:current-layer="g4" />
<g
   id="g4">
	<path
   d="M23.921,20.528c0,3.217-2.617,5.834-5.834,5.834s-5.833-2.617-5.833-5.834s2.616-5.834,5.833-5.834   S23.921,17.312,23.921,20.528z M36.174,12.244v16.57c0,2.209-1.791,4-4,4H4c-2.209,0-4-1.791-4-4v-16.57c0-2.209,1.791-4,4-4h4.92   V6.86c0-1.933,1.566-3.5,3.5-3.5h11.334c1.934,0,3.5,1.567,3.5,3.5v1.383h4.92C34.383,8.244,36.174,10.035,36.174,12.244z    M26.921,20.528c0-4.871-3.963-8.834-8.834-8.834c-4.87,0-8.833,3.963-8.833,8.834s3.963,8.834,8.833,8.834   C22.958,29.362,26.921,25.399,26.921,20.528z"
   id="path2"
   style="fill:#26ae2b;fill-opacity:0.74411756" />
</g>
<g
   id="g6">
</g>
<g
   id="g8">
</g>
<g
   id="g10">
</g>
<g
   id="g12">
</g>
<g
   id="g14">
</g>
<g
   id="g16">
</g>
<g
   id="g18">
</g>
<g
   id="g20">
</g>
<g
   id="g22">
</g>
<g
   id="g24">
</g>
<g
   id="g26">
</g>
<g
   id="g28">
</g>
<g
   id="g30">
</g>
<g
   id="g32">
</g>
<g
   id="g34">
</g>
</svg>
